<svg preserveAspectRatio="xMidYMid meet" data-bbox="1.61 1.913 80.513 14.438" viewBox="1.61 1.913 80.513 14.438" xmlns="http://www.w3.org/2000/svg" data-type="color" role="presentation" aria-hidden="true" aria-label="">
    <g>
        <path fill="#ffffff" d="M5.81 10.632 2.951 2.108H1.61v11.919h1.341V5.236l2.911 8.791h1.287V2.108H5.81z" data-color="1"></path>
        <path d="M17.581 9.167h1.589v3.126c-.267.465-.696.734-1.286.734-1.196 0-1.715-1.985-1.715-4.951 0-2.983.519-4.948 1.715-4.948.77 0 1.091.608 1.358 1.501L20.35 4.2c-.338-1.234-1.072-2.287-2.466-2.287-2.161 0-3.109 2.502-3.109 6.163s.948 6.166 3.109 6.166c1.055 0 1.894-.484 2.502-1.429V7.97h-2.804v1.198Z" fill="#ffffff" data-color="1"></path>
        <path fill="#ffffff" d="M27.747 7.289h-2.859V2.108h-1.341v11.919h1.341V8.504h2.859v5.523h1.339V2.108h-1.339z" data-color="1"></path>
        <path fill="#ffffff" d="M31.604 3.306h1.875v10.721h1.358V3.306h1.878V2.108h-5.111z" data-color="1"></path>
        <path d="M42.823 7.88c.948-.341 1.556-1.234 1.556-2.735 0-1.823-.893-3.038-2.573-3.038h-2.573v11.919h2.68c1.823 0 2.625-1.27 2.625-3.216 0-1.413-.679-2.752-1.715-2.93m-2.251-4.574h.965c1.091 0 1.449.893 1.449 2.018 0 1.144-.357 2.001-1.449 2.001h-.965zm1.036 9.522h-1.036V8.523h1.036c1.091 0 1.537 1.017 1.537 2.161 0 1.322-.446 2.144-1.537 2.144" fill="#ffffff" data-color="1"></path>
        <path d="M52.791 5.629c0-2.18-1.16-3.521-2.787-3.521h-2.502v11.919h1.341V9.219h1.053l1.556 4.808h1.446l-1.751-5.11c.734-.269 1.644-1.179 1.644-3.288m-2.966 2.394h-.982V3.306h.982c1.055 0 1.572.982 1.572 2.359s-.517 2.359-1.572 2.359Z" fill="#ffffff" data-color="1"></path>
        <path fill="#ffffff" d="M57.222 2.108v11.919h-1.341V2.108z" data-color="1"></path>
        <path d="M62.993 9.167h1.589v3.126c-.267.465-.696.734-1.286.734-1.196 0-1.715-1.985-1.715-4.951 0-2.983.519-4.948 1.715-4.948.77 0 1.091.608 1.358 1.501l1.108-.429c-.338-1.234-1.072-2.287-2.466-2.287-2.161 0-3.109 2.502-3.109 6.163s.948 6.166 3.109 6.166c1.055 0 1.894-.484 2.502-1.429V7.97h-2.804v1.198Z" fill="#ffffff" data-color="1"></path>
        <path fill="#ffffff" d="M73.156 7.289h-2.859V2.108h-1.339v11.919h1.339V8.504h2.859v5.523h1.341V2.108h-1.341z" data-color="1"></path>
        <path fill="#ffffff" d="M77.013 2.108v1.198h1.877v10.721h1.358V3.306h1.875V2.108z" data-color="1"></path>
        <path fill="#f7d030" d="m12.473 5.78.361-2.642-.411.946-.248.569-.66 1.516-.66 1.516-.637 1.457-.343.785.922.367-.467 3.415-.361 2.642.412-.946.248-.569.66-1.516.659-1.516.638-1.457.342-.782-.921-.37z" data-color="2"></path>
        <path fill="#ffffff" d="m10.932 4.963.567-1.301.566-1.302.099-.228v-.024h-1.526v3.528z" data-color="1"></path>
    </g>
</svg>